<svg xmlns="http://www.w3.org/2000/svg" version="1.1" xmlns:xlink="http://www.w3.org/1999/xlink" xmlns:svgjs="http://svgjs.com/svgjs" width="1440" height="800" preserveAspectRatio="none" viewBox="0 0 1440 800"><g mask="url(&quot;#SvgjsMask1030&quot;)" fill="none"><rect width="1440" height="800" x="0" y="0" fill="#0e2a47"></rect><path d="M31 800L831 0L1093.5 0L293.5 800z" fill="url(#SvgjsLinearGradient1031)"></path><path d="M539.2 800L1339.2 0L1718.7 0L918.7 800z" fill="url(#SvgjsLinearGradient1031)"></path><path d="M1356 800L556 0L355 0L1155 800z" fill="url(#SvgjsLinearGradient1032)"></path><path d="M947.8 800L147.79999999999995 0L-119.20000000000005 0L680.8 800z" fill="url(#SvgjsLinearGradient1032)"></path><path d="M994.7319179754832 800L1440 354.7319179754832L1440 800z" fill="url(#SvgjsLinearGradient1031)"></path><path d="M0 800L445.2680820245168 800L 0 354.7319179754832z" fill="url(#SvgjsLinearGradient1032)"></path></g><defs><mask id="SvgjsMask1030"><rect width="1440" height="800" fill="#ffffff"></rect></mask><linearGradient x1="0%" y1="100%" x2="100%" y2="0%" id="SvgjsLinearGradient1031"><stop stop-color="rgba(15, 70, 185, 0.2)" offset="0"></stop><stop stop-opacity="0" stop-color="rgba(15, 70, 185, 0.2)" offset="0.66"></stop></linearGradient><linearGradient x1="100%" y1="100%" x2="0%" y2="0%" id="SvgjsLinearGradient1032"><stop stop-color="rgba(15, 70, 185, 0.2)" offset="0"></stop><stop stop-opacity="0" stop-color="rgba(15, 70, 185, 0.2)" offset="0.66"></stop></linearGradient></defs></svg>